<?xml version="1.0" encoding="UTF-8" standalone="no"?>
<!DOCTYPE svg PUBLIC "-//W3C//DTD SVG 1.1//EN"
 "http://www.w3.org/Graphics/SVG/1.1/DTD/svg11.dtd">
<!-- Generated by graphviz version 11.0.0 (20240428.1522)
 -->
<!-- Title: g Pages: 1 -->
<svg width="1512pt" height="147pt"
 viewBox="0.00 0.00 1511.65 147.00" xmlns="http://www.w3.org/2000/svg" xmlns:xlink="http://www.w3.org/1999/xlink">
<g id="graph0" class="graph" transform="scale(1 1) rotate(0) translate(4 143)">
<title>g</title>
<polygon fill="white" stroke="none" points="-4,4 -4,-143 1507.65,-143 1507.65,4 -4,4"/>
<!-- MAIN -->
<g id="node1" class="node">
<title>MAIN</title>
<path fill="white" stroke="black" stroke-width="5" d="M12,-51.5C12,-51.5 301,-51.5 301,-51.5 307,-51.5 313,-57.5 313,-63.5 313,-63.5 313,-121.5 313,-121.5 313,-127.5 307,-133.5 301,-133.5 301,-133.5 12,-133.5 12,-133.5 6,-133.5 0,-127.5 0,-121.5 0,-121.5 0,-63.5 0,-63.5 0,-57.5 6,-51.5 12,-51.5"/>
<polygon fill="white" stroke="none" points="8,-55.5 8,-129.5 305,-129.5 305,-55.5 8,-55.5"/>
<polygon fill="black" stroke="none" points="10,-105.5 10,-127.5 303,-127.5 303,-105.5 10,-105.5"/>
<text text-anchor="start" x="13.68" y="-112.9" font-family="Courier New" font-size="14.00"> &#160;&#160;&#160;&#160;&#160;&#160;&#160;</text>
<text text-anchor="start" x="80.89" y="-112.9" font-family="Courier New" font-size="14.00" fill="white"> &#160;&#160;&#160;&#160;&#160;&#160;&#160;MAIN &#160;&#160;&#160;&#160;&#160;&#160;&#160;</text>
<text text-anchor="start" x="248.92" y="-112.9" font-family="Courier New" font-size="14.00"> &#160;&#160;&#160;&#160;&#160;</text>
<text text-anchor="start" x="13" y="-87.9" font-family="Courier New" font-size="14.00">Update: FILE1</text>
<text text-anchor="start" x="13" y="-63.9" font-family="Courier New" font-size="14.00">Update: FILE2</text>
</g>
<!-- $SETLSTID -->
<g id="node2" class="node">
<title>$SETLSTID</title>
<path fill="white" stroke="black" stroke-width="5" d="M361,-102.5C361,-102.5 691.65,-102.5 691.65,-102.5 697.65,-102.5 703.65,-108.5 703.65,-114.5 703.65,-114.5 703.65,-126.5 703.65,-126.5 703.65,-132.5 697.65,-138.5 691.65,-138.5 691.65,-138.5 361,-138.5 361,-138.5 355,-138.5 349,-132.5 349,-126.5 349,-126.5 349,-114.5 349,-114.5 349,-108.5 355,-102.5 361,-102.5"/>
<polygon fill="white" stroke="none" points="357,-107.2 357,-134 695.65,-134 695.65,-107.2 357,-107.2"/>
<polygon fill="black" stroke="none" points="359,-109.2 359,-132 693.65,-132 693.65,-109.2 359,-109.2"/>
<text text-anchor="start" x="362.5" y="-117.4" font-family="Courier New" font-size="14.00"> &#160;&#160;&#160;&#160;&#160;&#160;&#160;</text>
<text text-anchor="start" x="429.71" y="-117.4" font-family="Courier New" font-size="14.00" fill="white"> &#160;&#160;&#160;&#160;&#160;&#160;&#160;$SETLSTID &#160;&#160;&#160;&#160;&#160;&#160;&#160;</text>
<text text-anchor="start" x="639.75" y="-117.4" font-family="Courier New" font-size="14.00"> &#160;&#160;&#160;&#160;&#160;</text>
</g>
<!-- MAIN&#45;&gt;$SETLSTID -->
<g id="edge1" class="edge">
<title>MAIN&#45;&gt;$SETLSTID</title>
<path fill="none" stroke="black" d="M315.36,-104.52C321.98,-105.02 328.64,-105.53 335.31,-106.04"/>
<polygon fill="black" stroke="black" points="334.8,-109.51 345.03,-106.78 335.33,-102.53 334.8,-109.51"/>
</g>
<!-- $CRTEVTS -->
<g id="node3" class="node">
<title>$CRTEVTS</title>
<path fill="white" stroke="black" stroke-width="5" d="M365.2,-47.5C365.2,-47.5 687.45,-47.5 687.45,-47.5 693.45,-47.5 699.45,-53.5 699.45,-59.5 699.45,-59.5 699.45,-71.5 699.45,-71.5 699.45,-77.5 693.45,-83.5 687.45,-83.5 687.45,-83.5 365.2,-83.5 365.2,-83.5 359.2,-83.5 353.2,-77.5 353.2,-71.5 353.2,-71.5 353.2,-59.5 353.2,-59.5 353.2,-53.5 359.2,-47.5 365.2,-47.5"/>
<polygon fill="white" stroke="none" points="361.2,-52.2 361.2,-79 691.45,-79 691.45,-52.2 361.2,-52.2"/>
<polygon fill="black" stroke="none" points="363.2,-54.2 363.2,-77 689.45,-77 689.45,-54.2 363.2,-54.2"/>
<text text-anchor="start" x="366.7" y="-62.4" font-family="Courier New" font-size="14.00"> &#160;&#160;&#160;&#160;&#160;&#160;&#160;</text>
<text text-anchor="start" x="433.91" y="-62.4" font-family="Courier New" font-size="14.00" fill="white"> &#160;&#160;&#160;&#160;&#160;&#160;&#160;$CRTEVTS &#160;&#160;&#160;&#160;&#160;&#160;&#160;</text>
<text text-anchor="start" x="635.54" y="-62.4" font-family="Courier New" font-size="14.00"> &#160;&#160;&#160;&#160;&#160;</text>
</g>
<!-- MAIN&#45;&gt;$CRTEVTS -->
<g id="edge2" class="edge">
<title>MAIN&#45;&gt;$CRTEVTS</title>
<path fill="none" stroke="black" d="M315.36,-80.91C323.37,-80.32 331.45,-79.73 339.54,-79.14"/>
<polygon fill="black" stroke="black" points="339.74,-82.63 349.45,-78.41 339.22,-75.65 339.74,-82.63"/>
</g>
<!-- $CRTCOWEVT -->
<g id="node4" class="node">
<title>$CRTCOWEVT</title>
<path fill="white" stroke="black" stroke-width="5" d="M1151.65,-0.5C1151.65,-0.5 1491.65,-0.5 1491.65,-0.5 1497.65,-0.5 1503.65,-6.5 1503.65,-12.5 1503.65,-12.5 1503.65,-118.5 1503.65,-118.5 1503.65,-124.5 1497.65,-130.5 1491.65,-130.5 1491.65,-130.5 1151.65,-130.5 1151.65,-130.5 1145.65,-130.5 1139.65,-124.5 1139.65,-118.5 1139.65,-118.5 1139.65,-12.5 1139.65,-12.5 1139.65,-6.5 1145.65,-0.5 1151.65,-0.5"/>
<polygon fill="white" stroke="none" points="1147.65,-4.5 1147.65,-126.5 1495.65,-126.5 1495.65,-4.5 1147.65,-4.5"/>
<polygon fill="black" stroke="none" points="1149.65,-102.5 1149.65,-124.5 1493.65,-124.5 1493.65,-102.5 1149.65,-102.5"/>
<text text-anchor="start" x="1153.63" y="-109.9" font-family="Courier New" font-size="14.00"> &#160;&#160;&#160;&#160;&#160;&#160;&#160;</text>
<text text-anchor="start" x="1220.84" y="-109.9" font-family="Courier New" font-size="14.00" fill="white"> &#160;&#160;&#160;&#160;&#160;&#160;&#160;$CRTCOWEVT &#160;&#160;&#160;&#160;&#160;&#160;&#160;</text>
<text text-anchor="start" x="1439.27" y="-109.9" font-family="Courier New" font-size="14.00"> &#160;&#160;&#160;&#160;&#160;</text>
<text text-anchor="start" x="1152.65" y="-84.9" font-family="Courier New" font-size="14.00">Update: EVTFMT</text>
<text text-anchor="start" x="1152.65" y="-60.9" font-family="Courier New" font-size="14.00">Write: EVTFMT</text>
<text text-anchor="start" x="1152.65" y="-36.9" font-family="Courier New" font-size="14.00">Write: FILE1</text>
<text text-anchor="start" x="1152.65" y="-12.9" font-family="Courier New" font-size="14.00">Write: FILE2</text>
</g>
<!-- $CRTEVTS&#45;&gt;$CRTCOWEVT -->
<g id="edge4" class="edge">
<title>$CRTEVTS&#45;&gt;$CRTCOWEVT</title>
<path fill="none" stroke="black" d="M701.69,-74.37C714.53,-74.82 727.29,-75.21 739.65,-75.5 901.39,-79.31 941.92,-79.22 1103.65,-75.5 1110.91,-75.33 1118.31,-75.13 1125.78,-74.91"/>
<polygon fill="black" stroke="black" points="1125.77,-78.41 1135.66,-74.6 1125.55,-71.42 1125.77,-78.41"/>
</g>
<!-- $CRTBRNEVT -->
<g id="node5" class="node">
<title>$CRTBRNEVT</title>
<path fill="white" stroke="black" stroke-width="5" d="M751.65,-7.5C751.65,-7.5 1091.65,-7.5 1091.65,-7.5 1097.65,-7.5 1103.65,-13.5 1103.65,-19.5 1103.65,-19.5 1103.65,-53.5 1103.65,-53.5 1103.65,-59.5 1097.65,-65.5 1091.65,-65.5 1091.65,-65.5 751.65,-65.5 751.65,-65.5 745.65,-65.5 739.65,-59.5 739.65,-53.5 739.65,-53.5 739.65,-19.5 739.65,-19.5 739.65,-13.5 745.65,-7.5 751.65,-7.5"/>
<polygon fill="white" stroke="none" points="747.65,-11.5 747.65,-61.5 1095.65,-61.5 1095.65,-11.5 747.65,-11.5"/>
<polygon fill="black" stroke="none" points="749.65,-37.5 749.65,-59.5 1093.65,-59.5 1093.65,-37.5 749.65,-37.5"/>
<text text-anchor="start" x="753.63" y="-44.9" font-family="Courier New" font-size="14.00"> &#160;&#160;&#160;&#160;&#160;&#160;&#160;</text>
<text text-anchor="start" x="820.84" y="-44.9" font-family="Courier New" font-size="14.00" fill="white"> &#160;&#160;&#160;&#160;&#160;&#160;&#160;$CRTBRNEVT &#160;&#160;&#160;&#160;&#160;&#160;&#160;</text>
<text text-anchor="start" x="1039.27" y="-44.9" font-family="Courier New" font-size="14.00"> &#160;&#160;&#160;&#160;&#160;</text>
<text text-anchor="start" x="752.65" y="-19.9" font-family="Courier New" font-size="14.00">Write: EVTFMT</text>
</g>
<!-- $CRTEVTS&#45;&gt;$CRTBRNEVT -->
<g id="edge5" class="edge">
<title>$CRTEVTS&#45;&gt;$CRTBRNEVT</title>
<path fill="none" stroke="black" d="M701.85,-52.63C709.87,-52.04 717.95,-51.45 726.02,-50.85"/>
<polygon fill="black" stroke="black" points="726.19,-54.35 735.91,-50.12 725.68,-47.37 726.19,-54.35"/>
</g>
<!-- $CRTBRNEVT&#45;&gt;$CRTCOWEVT -->
<g id="edge3" class="edge">
<title>$CRTBRNEVT&#45;&gt;$CRTCOWEVT</title>
<path fill="none" stroke="black" d="M1105.93,-49.85C1112.59,-50.34 1119.28,-50.83 1125.96,-51.31"/>
<polygon fill="black" stroke="black" points="1125.46,-54.79 1135.69,-52.02 1125.97,-47.81 1125.46,-54.79"/>
</g>
</g>
</svg>
