<?xml version="1.0" encoding="UTF-8" standalone="no"?>
<!DOCTYPE svg PUBLIC "-//W3C//DTD SVG 1.1//EN"
 "http://www.w3.org/Graphics/SVG/1.1/DTD/svg11.dtd">
<!-- Generated by graphviz version 11.0.0 (20240428.1522)
 -->
<!-- Title: g Pages: 1 -->
<svg width="1484pt" height="196pt"
 viewBox="0.00 0.00 1484.21 196.43" xmlns="http://www.w3.org/2000/svg" xmlns:xlink="http://www.w3.org/1999/xlink">
<g id="graph0" class="graph" transform="scale(1 1) rotate(0) translate(4 192.43)">
<title>g</title>
<polygon fill="white" stroke="none" points="-4,4 -4,-192.43 1480.21,-192.43 1480.21,4 -4,4"/>
<!-- MAIN -->
<g id="node1" class="node">
<title>MAIN</title>
<path fill="white" stroke="black" stroke-width="5" d="M12,-131.5C12,-131.5 300.65,-131.5 300.65,-131.5 306.65,-131.5 312.65,-137.5 312.65,-143.5 312.65,-143.5 312.65,-155.5 312.65,-155.5 312.65,-161.5 306.65,-167.5 300.65,-167.5 300.65,-167.5 12,-167.5 12,-167.5 6,-167.5 0,-161.5 0,-155.5 0,-155.5 0,-143.5 0,-143.5 0,-137.5 6,-131.5 12,-131.5"/>
<polygon fill="white" stroke="none" points="8,-136.2 8,-163 304.65,-163 304.65,-136.2 8,-136.2"/>
<polygon fill="black" stroke="none" points="10,-138.2 10,-161 302.65,-161 302.65,-138.2 10,-138.2"/>
<text text-anchor="start" x="13.5" y="-146.4" font-family="Courier New" font-size="14.00"> &#160;&#160;&#160;&#160;&#160;&#160;&#160;</text>
<text text-anchor="start" x="80.71" y="-146.4" font-family="Courier New" font-size="14.00" fill="white"> &#160;&#160;&#160;&#160;&#160;&#160;&#160;MAIN &#160;&#160;&#160;&#160;&#160;&#160;&#160;</text>
<text text-anchor="start" x="248.74" y="-146.4" font-family="Courier New" font-size="14.00"> &#160;&#160;&#160;&#160;&#160;</text>
</g>
<!-- QCMDEXC -->
<g id="node2" class="node">
<title>QCMDEXC</title>
<path fill="white" stroke="black" stroke-width="5" d="M1150.35,-121.5C1150.35,-121.5 1464.21,-121.5 1464.21,-121.5 1470.21,-121.5 1476.21,-127.5 1476.21,-133.5 1476.21,-133.5 1476.21,-145.5 1476.21,-145.5 1476.21,-151.5 1470.21,-157.5 1464.21,-157.5 1464.21,-157.5 1150.35,-157.5 1150.35,-157.5 1144.35,-157.5 1138.35,-151.5 1138.35,-145.5 1138.35,-145.5 1138.35,-133.5 1138.35,-133.5 1138.35,-127.5 1144.35,-121.5 1150.35,-121.5"/>
<polygon fill="white" stroke="none" points="1146.35,-126.2 1146.35,-153 1468.21,-153 1468.21,-126.2 1146.35,-126.2"/>
<polygon fill="slategrey" stroke="none" points="1148.35,-128.2 1148.35,-151 1466.21,-151 1466.21,-128.2 1148.35,-128.2"/>
<text text-anchor="start" x="1151.85" y="-136.4" font-family="Courier New" font-size="14.00"> &#160;&#160;&#160;&#160;&#160;&#160;&#160;</text>
<text text-anchor="start" x="1219.07" y="-136.4" font-family="Courier New" font-size="14.00" fill="white"> &#160;&#160;&#160;&#160;&#160;&#160;&#160;QCMDEXC &#160;&#160;&#160;&#160;&#160;&#160;&#160;</text>
<text text-anchor="start" x="1412.3" y="-136.4" font-family="Courier New" font-size="14.00"> &#160;&#160;&#160;&#160;&#160;</text>
</g>
<!-- MAIN&#45;&gt;QCMDEXC -->
<g id="edge3" class="edge">
<title>MAIN&#45;&gt;QCMDEXC</title>
<path fill="none" stroke="black" d="M278.74,-169.98C301.89,-173.11 325.96,-175.85 348.65,-177.5 682.86,-201.83 768.05,-180.62 1102.35,-157.5 1109.65,-157 1117.1,-156.46 1124.62,-155.89"/>
<polygon fill="black" stroke="black" points="1124.86,-159.38 1134.56,-155.13 1124.33,-152.4 1124.86,-159.38"/>
</g>
<!-- $SETLSTID -->
<g id="node3" class="node">
<title>$SETLSTID</title>
<path fill="white" stroke="black" stroke-width="5" d="M360.65,-131.5C360.65,-131.5 691.3,-131.5 691.3,-131.5 697.3,-131.5 703.3,-137.5 703.3,-143.5 703.3,-143.5 703.3,-155.5 703.3,-155.5 703.3,-161.5 697.3,-167.5 691.3,-167.5 691.3,-167.5 360.65,-167.5 360.65,-167.5 354.65,-167.5 348.65,-161.5 348.65,-155.5 348.65,-155.5 348.65,-143.5 348.65,-143.5 348.65,-137.5 354.65,-131.5 360.65,-131.5"/>
<polygon fill="white" stroke="none" points="356.65,-136.2 356.65,-163 695.3,-163 695.3,-136.2 356.65,-136.2"/>
<polygon fill="black" stroke="none" points="358.65,-138.2 358.65,-161 693.3,-161 693.3,-138.2 358.65,-138.2"/>
<text text-anchor="start" x="362.15" y="-146.4" font-family="Courier New" font-size="14.00"> &#160;&#160;&#160;&#160;&#160;&#160;&#160;</text>
<text text-anchor="start" x="429.36" y="-146.4" font-family="Courier New" font-size="14.00" fill="white"> &#160;&#160;&#160;&#160;&#160;&#160;&#160;$SETLSTID &#160;&#160;&#160;&#160;&#160;&#160;&#160;</text>
<text text-anchor="start" x="639.39" y="-146.4" font-family="Courier New" font-size="14.00"> &#160;&#160;&#160;&#160;&#160;</text>
</g>
<!-- MAIN&#45;&gt;$SETLSTID -->
<g id="edge1" class="edge">
<title>MAIN&#45;&gt;$SETLSTID</title>
<path fill="none" stroke="black" d="M315.11,-149.5C321.72,-149.5 328.38,-149.5 335.05,-149.5"/>
<polygon fill="black" stroke="black" points="334.76,-153 344.76,-149.5 334.76,-146 334.76,-153"/>
</g>
<!-- $CRTEVTS -->
<g id="node6" class="node">
<title>$CRTEVTS</title>
<path fill="white" stroke="black" stroke-width="5" d="M364.85,-66.5C364.85,-66.5 687.1,-66.5 687.1,-66.5 693.1,-66.5 699.1,-72.5 699.1,-78.5 699.1,-78.5 699.1,-90.5 699.1,-90.5 699.1,-96.5 693.1,-102.5 687.1,-102.5 687.1,-102.5 364.85,-102.5 364.85,-102.5 358.85,-102.5 352.85,-96.5 352.85,-90.5 352.85,-90.5 352.85,-78.5 352.85,-78.5 352.85,-72.5 358.85,-66.5 364.85,-66.5"/>
<polygon fill="white" stroke="none" points="360.85,-71.2 360.85,-98 691.1,-98 691.1,-71.2 360.85,-71.2"/>
<polygon fill="black" stroke="none" points="362.85,-73.2 362.85,-96 689.1,-96 689.1,-73.2 362.85,-73.2"/>
<text text-anchor="start" x="366.35" y="-81.4" font-family="Courier New" font-size="14.00"> &#160;&#160;&#160;&#160;&#160;&#160;&#160;</text>
<text text-anchor="start" x="433.56" y="-81.4" font-family="Courier New" font-size="14.00" fill="white"> &#160;&#160;&#160;&#160;&#160;&#160;&#160;$CRTEVTS &#160;&#160;&#160;&#160;&#160;&#160;&#160;</text>
<text text-anchor="start" x="635.19" y="-81.4" font-family="Courier New" font-size="14.00"> &#160;&#160;&#160;&#160;&#160;</text>
</g>
<!-- MAIN&#45;&gt;$CRTEVTS -->
<g id="edge2" class="edge">
<title>MAIN&#45;&gt;$CRTEVTS</title>
<path fill="none" stroke="black" d="M273.15,-129.02C312.78,-122.02 357.32,-114.14 397.8,-106.98"/>
<polygon fill="black" stroke="black" points="398.37,-110.44 407.61,-105.25 397.15,-103.54 398.37,-110.44"/>
</g>
<!-- $SETLSTID&#45;&gt;QCMDEXC -->
<g id="edge4" class="edge">
<title>$SETLSTID&#45;&gt;QCMDEXC</title>
<path fill="none" stroke="black" d="M705.76,-147.21C831.28,-145.6 998.57,-143.45 1124.7,-141.83"/>
<polygon fill="black" stroke="black" points="1124.54,-145.33 1134.5,-141.7 1124.45,-138.33 1124.54,-145.33"/>
</g>
<!-- $CRTBRNEVT -->
<g id="node4" class="node">
<title>$CRTBRNEVT</title>
<path fill="white" stroke="black" stroke-width="5" d="M751.3,-55.5C751.3,-55.5 1090.35,-55.5 1090.35,-55.5 1096.35,-55.5 1102.35,-61.5 1102.35,-67.5 1102.35,-67.5 1102.35,-79.5 1102.35,-79.5 1102.35,-85.5 1096.35,-91.5 1090.35,-91.5 1090.35,-91.5 751.3,-91.5 751.3,-91.5 745.3,-91.5 739.3,-85.5 739.3,-79.5 739.3,-79.5 739.3,-67.5 739.3,-67.5 739.3,-61.5 745.3,-55.5 751.3,-55.5"/>
<polygon fill="white" stroke="none" points="747.3,-60.2 747.3,-87 1094.35,-87 1094.35,-60.2 747.3,-60.2"/>
<polygon fill="black" stroke="none" points="749.3,-62.2 749.3,-85 1092.35,-85 1092.35,-62.2 749.3,-62.2"/>
<text text-anchor="start" x="752.8" y="-70.4" font-family="Courier New" font-size="14.00"> &#160;&#160;&#160;&#160;&#160;&#160;&#160;</text>
<text text-anchor="start" x="820.01" y="-70.4" font-family="Courier New" font-size="14.00" fill="white"> &#160;&#160;&#160;&#160;&#160;&#160;&#160;$CRTBRNEVT &#160;&#160;&#160;&#160;&#160;&#160;&#160;</text>
<text text-anchor="start" x="1038.45" y="-70.4" font-family="Courier New" font-size="14.00"> &#160;&#160;&#160;&#160;&#160;</text>
</g>
<!-- $CRTBRNEVT&#45;&gt;QCMDEXC -->
<g id="edge5" class="edge">
<title>$CRTBRNEVT&#45;&gt;QCMDEXC</title>
<path fill="none" stroke="black" d="M1041.1,-93.98C1083.79,-101.31 1132.13,-109.6 1175.72,-117.09"/>
<polygon fill="black" stroke="black" points="1175.05,-120.52 1185.5,-118.77 1176.24,-113.62 1175.05,-120.52"/>
</g>
<!-- $CRTCOWEVT -->
<g id="node5" class="node">
<title>$CRTCOWEVT</title>
<path fill="white" stroke="black" stroke-width="5" d="M751.3,-0.5C751.3,-0.5 1090.35,-0.5 1090.35,-0.5 1096.35,-0.5 1102.35,-6.5 1102.35,-12.5 1102.35,-12.5 1102.35,-24.5 1102.35,-24.5 1102.35,-30.5 1096.35,-36.5 1090.35,-36.5 1090.35,-36.5 751.3,-36.5 751.3,-36.5 745.3,-36.5 739.3,-30.5 739.3,-24.5 739.3,-24.5 739.3,-12.5 739.3,-12.5 739.3,-6.5 745.3,-0.5 751.3,-0.5"/>
<polygon fill="white" stroke="none" points="747.3,-5.2 747.3,-32 1094.35,-32 1094.35,-5.2 747.3,-5.2"/>
<polygon fill="black" stroke="none" points="749.3,-7.2 749.3,-30 1092.35,-30 1092.35,-7.2 749.3,-7.2"/>
<text text-anchor="start" x="752.8" y="-15.4" font-family="Courier New" font-size="14.00"> &#160;&#160;&#160;&#160;&#160;&#160;&#160;</text>
<text text-anchor="start" x="820.01" y="-15.4" font-family="Courier New" font-size="14.00" fill="white"> &#160;&#160;&#160;&#160;&#160;&#160;&#160;$CRTCOWEVT &#160;&#160;&#160;&#160;&#160;&#160;&#160;</text>
<text text-anchor="start" x="1038.45" y="-15.4" font-family="Courier New" font-size="14.00"> &#160;&#160;&#160;&#160;&#160;</text>
</g>
<!-- $CRTEVTS&#45;&gt;QCMDEXC -->
<g id="edge8" class="edge">
<title>$CRTEVTS&#45;&gt;QCMDEXC</title>
<path fill="none" stroke="black" d="M701.34,-98.64C714.19,-99.63 726.94,-100.59 739.3,-101.5 868.07,-110.97 1013.37,-120.69 1124.64,-127.93"/>
<polygon fill="black" stroke="black" points="1124.26,-131.41 1134.47,-128.57 1124.72,-124.43 1124.26,-131.41"/>
</g>
<!-- $CRTEVTS&#45;&gt;$CRTBRNEVT -->
<g id="edge7" class="edge">
<title>$CRTEVTS&#45;&gt;$CRTBRNEVT</title>
<path fill="none" stroke="black" d="M701.57,-79.61C709.58,-79.39 717.64,-79.16 725.69,-78.94"/>
<polygon fill="black" stroke="black" points="725.66,-82.44 735.55,-78.66 725.46,-75.44 725.66,-82.44"/>
</g>
<!-- $CRTEVTS&#45;&gt;$CRTCOWEVT -->
<g id="edge6" class="edge">
<title>$CRTEVTS&#45;&gt;$CRTCOWEVT</title>
<path fill="none" stroke="black" d="M634.6,-64.02C668.1,-57.83 705.2,-51.18 739.3,-45.5 748.84,-43.91 758.67,-42.32 768.58,-40.74"/>
<polygon fill="black" stroke="black" points="768.98,-44.22 778.31,-39.21 767.89,-37.31 768.98,-44.22"/>
</g>
</g>
</svg>
