<?xml version="1.0" encoding="UTF-8" standalone="no"?>
<!DOCTYPE svg PUBLIC "-//W3C//DTD SVG 1.1//EN"
 "http://www.w3.org/Graphics/SVG/1.1/DTD/svg11.dtd">
<!-- Generated by graphviz version 11.0.0 (20240428.1522)
 -->
<!-- Title: g Pages: 1 -->
<svg width="1112pt" height="182pt"
 viewBox="0.00 0.00 1112.00 182.00" xmlns="http://www.w3.org/2000/svg" xmlns:xlink="http://www.w3.org/1999/xlink">
<g id="graph0" class="graph" transform="scale(1 1) rotate(0) translate(4 178)">
<title>g</title>
<polygon fill="white" stroke="none" points="-4,4 -4,-178 1108,-178 1108,4 -4,4"/>
<!-- MAIN -->
<g id="node1" class="node">
<title>MAIN</title>
<path fill="white" stroke="black" stroke-width="5" d="M12,-76.5C12,-76.5 301,-76.5 301,-76.5 307,-76.5 313,-82.5 313,-88.5 313,-88.5 313,-122.5 313,-122.5 313,-128.5 307,-134.5 301,-134.5 301,-134.5 12,-134.5 12,-134.5 6,-134.5 0,-128.5 0,-122.5 0,-122.5 0,-88.5 0,-88.5 0,-82.5 6,-76.5 12,-76.5"/>
<polygon fill="white" stroke="none" points="8,-80.5 8,-130.5 305,-130.5 305,-80.5 8,-80.5"/>
<polygon fill="black" stroke="none" points="10,-106.5 10,-128.5 303,-128.5 303,-106.5 10,-106.5"/>
<text text-anchor="start" x="13.68" y="-113.9" font-family="Courier New" font-size="14.00"> &#160;&#160;&#160;&#160;&#160;&#160;&#160;</text>
<text text-anchor="start" x="80.89" y="-113.9" font-family="Courier New" font-size="14.00" fill="white"> &#160;&#160;&#160;&#160;&#160;&#160;&#160;MAIN &#160;&#160;&#160;&#160;&#160;&#160;&#160;</text>
<text text-anchor="start" x="248.92" y="-113.9" font-family="Courier New" font-size="14.00"> &#160;&#160;&#160;&#160;&#160;</text>
<text text-anchor="start" x="13" y="-88.9" font-family="Courier New" font-size="14.00"> &#160;&#160;&#160;&#160;&#160;&#160;&#160;&#45; &#160;&#160;&#160;&#160;&#160;</text>
</g>
<!-- $SETLSTID -->
<g id="node2" class="node">
<title>$SETLSTID</title>
<path fill="white" stroke="black" stroke-width="5" d="M361,-115.5C361,-115.5 692,-115.5 692,-115.5 698,-115.5 704,-121.5 704,-127.5 704,-127.5 704,-161.5 704,-161.5 704,-167.5 698,-173.5 692,-173.5 692,-173.5 361,-173.5 361,-173.5 355,-173.5 349,-167.5 349,-161.5 349,-161.5 349,-127.5 349,-127.5 349,-121.5 355,-115.5 361,-115.5"/>
<polygon fill="white" stroke="none" points="357,-119.5 357,-169.5 696,-169.5 696,-119.5 357,-119.5"/>
<polygon fill="black" stroke="none" points="359,-145.5 359,-167.5 694,-167.5 694,-145.5 359,-145.5"/>
<text text-anchor="start" x="362.67" y="-152.9" font-family="Courier New" font-size="14.00"> &#160;&#160;&#160;&#160;&#160;&#160;&#160;</text>
<text text-anchor="start" x="429.88" y="-152.9" font-family="Courier New" font-size="14.00" fill="white"> &#160;&#160;&#160;&#160;&#160;&#160;&#160;$SETLSTID &#160;&#160;&#160;&#160;&#160;&#160;&#160;</text>
<text text-anchor="start" x="639.92" y="-152.9" font-family="Courier New" font-size="14.00"> &#160;&#160;&#160;&#160;&#160;</text>
<text text-anchor="start" x="362" y="-127.9" font-family="Courier New" font-size="14.00"> &#160;&#160;&#160;&#160;&#160;&#160;&#160;&#45; &#160;&#160;&#160;&#160;&#160;</text>
</g>
<!-- MAIN&#45;&gt;$SETLSTID -->
<g id="edge1" class="edge">
<title>MAIN&#45;&gt;$SETLSTID</title>
<path fill="none" stroke="black" d="M315.43,-122.24C322.05,-122.94 328.72,-123.65 335.39,-124.35"/>
<polygon fill="black" stroke="black" points="334.81,-127.81 345.13,-125.38 335.55,-120.85 334.81,-127.81"/>
</g>
<!-- $CRTEVTS -->
<g id="node3" class="node">
<title>$CRTEVTS</title>
<path fill="white" stroke="black" stroke-width="5" d="M365,-38.5C365,-38.5 688,-38.5 688,-38.5 694,-38.5 700,-44.5 700,-50.5 700,-50.5 700,-84.5 700,-84.5 700,-90.5 694,-96.5 688,-96.5 688,-96.5 365,-96.5 365,-96.5 359,-96.5 353,-90.5 353,-84.5 353,-84.5 353,-50.5 353,-50.5 353,-44.5 359,-38.5 365,-38.5"/>
<polygon fill="white" stroke="none" points="361,-42.5 361,-92.5 692,-92.5 692,-42.5 361,-42.5"/>
<polygon fill="black" stroke="none" points="363,-68.5 363,-90.5 690,-90.5 690,-68.5 363,-68.5"/>
<text text-anchor="start" x="366.87" y="-75.9" font-family="Courier New" font-size="14.00"> &#160;&#160;&#160;&#160;&#160;&#160;&#160;</text>
<text text-anchor="start" x="434.08" y="-75.9" font-family="Courier New" font-size="14.00" fill="white"> &#160;&#160;&#160;&#160;&#160;&#160;&#160;$CRTEVTS &#160;&#160;&#160;&#160;&#160;&#160;&#160;</text>
<text text-anchor="start" x="635.72" y="-75.9" font-family="Courier New" font-size="14.00"> &#160;&#160;&#160;&#160;&#160;</text>
<text text-anchor="start" x="366" y="-50.9" font-family="Courier New" font-size="14.00"> &#160;&#160;&#160;&#160;&#160;&#160;&#160;&#45; &#160;&#160;&#160;&#160;&#160;</text>
</g>
<!-- MAIN&#45;&gt;$CRTEVTS -->
<g id="edge2" class="edge">
<title>MAIN&#45;&gt;$CRTEVTS</title>
<path fill="none" stroke="black" d="M315.43,-89.19C323.38,-88.37 331.4,-87.54 339.42,-86.71"/>
<polygon fill="black" stroke="black" points="339.67,-90.21 349.25,-85.7 338.95,-83.25 339.67,-90.21"/>
</g>
<!-- $CRTCOWEVT -->
<g id="node4" class="node">
<title>$CRTCOWEVT</title>
<path fill="white" stroke="black" stroke-width="5" d="M752,-77.5C752,-77.5 1092,-77.5 1092,-77.5 1098,-77.5 1104,-83.5 1104,-89.5 1104,-89.5 1104,-123.5 1104,-123.5 1104,-129.5 1098,-135.5 1092,-135.5 1092,-135.5 752,-135.5 752,-135.5 746,-135.5 740,-129.5 740,-123.5 740,-123.5 740,-89.5 740,-89.5 740,-83.5 746,-77.5 752,-77.5"/>
<polygon fill="white" stroke="none" points="748,-81.5 748,-131.5 1096,-131.5 1096,-81.5 748,-81.5"/>
<polygon fill="black" stroke="none" points="750,-107.5 750,-129.5 1094,-129.5 1094,-107.5 750,-107.5"/>
<text text-anchor="start" x="753.97" y="-114.9" font-family="Courier New" font-size="14.00"> &#160;&#160;&#160;&#160;&#160;&#160;&#160;</text>
<text text-anchor="start" x="821.18" y="-114.9" font-family="Courier New" font-size="14.00" fill="white"> &#160;&#160;&#160;&#160;&#160;&#160;&#160;$CRTCOWEVT &#160;&#160;&#160;&#160;&#160;&#160;&#160;</text>
<text text-anchor="start" x="1039.62" y="-114.9" font-family="Courier New" font-size="14.00"> &#160;&#160;&#160;&#160;&#160;</text>
<text text-anchor="start" x="753" y="-89.9" font-family="Courier New" font-size="14.00"> &#160;&#160;&#160;&#160;&#160;&#160;&#160;&#45; &#160;&#160;&#160;&#160;&#160;</text>
</g>
<!-- $CRTEVTS&#45;&gt;$CRTCOWEVT -->
<g id="edge3" class="edge">
<title>$CRTEVTS&#45;&gt;$CRTCOWEVT</title>
<path fill="none" stroke="black" d="M702.39,-84.83C710.34,-85.62 718.34,-86.41 726.34,-87.21"/>
<polygon fill="black" stroke="black" points="725.83,-90.67 736.13,-88.18 726.52,-83.71 725.83,-90.67"/>
</g>
<!-- $CRTBRNEVT -->
<g id="node5" class="node">
<title>$CRTBRNEVT</title>
<path fill="white" stroke="black" stroke-width="5" d="M752,-0.5C752,-0.5 1092,-0.5 1092,-0.5 1098,-0.5 1104,-6.5 1104,-12.5 1104,-12.5 1104,-46.5 1104,-46.5 1104,-52.5 1098,-58.5 1092,-58.5 1092,-58.5 752,-58.5 752,-58.5 746,-58.5 740,-52.5 740,-46.5 740,-46.5 740,-12.5 740,-12.5 740,-6.5 746,-0.5 752,-0.5"/>
<polygon fill="white" stroke="none" points="748,-4.5 748,-54.5 1096,-54.5 1096,-4.5 748,-4.5"/>
<polygon fill="black" stroke="none" points="750,-30.5 750,-52.5 1094,-52.5 1094,-30.5 750,-30.5"/>
<text text-anchor="start" x="753.97" y="-37.9" font-family="Courier New" font-size="14.00"> &#160;&#160;&#160;&#160;&#160;&#160;&#160;</text>
<text text-anchor="start" x="821.18" y="-37.9" font-family="Courier New" font-size="14.00" fill="white"> &#160;&#160;&#160;&#160;&#160;&#160;&#160;$CRTBRNEVT &#160;&#160;&#160;&#160;&#160;&#160;&#160;</text>
<text text-anchor="start" x="1039.62" y="-37.9" font-family="Courier New" font-size="14.00"> &#160;&#160;&#160;&#160;&#160;</text>
<text text-anchor="start" x="753" y="-12.9" font-family="Courier New" font-size="14.00"> &#160;&#160;&#160;&#160;&#160;&#160;&#160;&#45; &#160;&#160;&#160;&#160;&#160;</text>
</g>
<!-- $CRTEVTS&#45;&gt;$CRTBRNEVT -->
<g id="edge4" class="edge">
<title>$CRTEVTS&#45;&gt;$CRTBRNEVT</title>
<path fill="none" stroke="black" d="M702.39,-50.61C710.34,-49.84 718.34,-49.07 726.34,-48.3"/>
<polygon fill="black" stroke="black" points="726.51,-51.8 736.12,-47.35 725.83,-44.83 726.51,-51.8"/>
</g>
</g>
</svg>
